HIERARCHY
ROOT Hips
{
	OFFSET 0.000000 0.000000 0.000000
	CHANNELS 6 Xposition Yposition Zposition Zrotation Yrotation Xrotation 
	JOINT LHipJoint
	{
		OFFSET 0.000000 0.000000 0.000000
		CHANNELS 3 Zrotation Yrotation Xrotation
		JOINT LeftUpLeg
		{
			OFFSET 1.363060 -1.794630 0.839290
			CHANNELS 3 Zrotation Yrotation Xrotation
			JOINT LeftLeg
			{
				OFFSET 2.448110 -6.726130 0.000000
				CHANNELS 3 Zrotation Yrotation Xrotation
				JOINT LeftFoot
				{
					OFFSET 2.562200 -7.039590 0.000000
					CHANNELS 3 Zrotation Yrotation Xrotation
					JOINT LeftToeBase
					{
						OFFSET 0.157640 -0.433110 2.322550
						CHANNELS 3 Zrotation Yrotation Xrotation
						End Site
						{
							OFFSET 0.000000 0.000000 0.000000
						}
					}
				}
			}
		}
	}
	JOINT RHipJoint
	{
		OFFSET 0.000000 0.000000 0.000000
		CHANNELS 3 Zrotation Yrotation Xrotation
		JOINT RightUpLeg
		{
			OFFSET -1.305520 -1.794630 0.839290
			CHANNELS 3 Zrotation Yrotation Xrotation
			JOINT RightLeg
			{
				OFFSET -2.542530 -6.985550 0.000000
				CHANNELS 3 Zrotation Yrotation Xrotation
				JOINT RightFoot
				{
					OFFSET -2.568260 -7.056230 0.000000
					CHANNELS 3 Zrotation Yrotation Xrotation
					JOINT RightToeBase
					{
						OFFSET -0.164730 -0.452590 2.363150
						CHANNELS 3 Zrotation Yrotation Xrotation
						End Site
						{
							OFFSET 0.000000 0.000000 0.000000
						}
					}
				}
			}
		}
	}
}
MOTION
Frames: 24
Frame Time: 0.008333
5.104746 16.632799 -7.209355 -177.374463 39.806424 -173.212084 -8.376524 2.022780 -0.523682 -22.992350 17.341474 -37.217383 -2.737401 1.174478 33.428939 2.628110 11.435941 -17.382880 177.858700 0.000000 -4.283100 12.618393 -3.544916 -1.297988 -5.604090 -18.714705 -7.496682 -0.626503 -3.156760 49.789743 -1.069490 6.419850 27.177236 4.174500 -0.000001 -86.846200
5.146940 16.568921 -7.311842 -177.717257 39.394782 -173.673653 -8.358349 2.052414 -0.645964 -23.205381 17.166059 -37.215270 -2.683452 1.329315 35.296405 2.657933 11.372510 -18.421033 177.606899 0.000000 -4.104500 12.721608 -3.344610 -1.478667 -6.211248 -19.051329 -8.482485 -0.772346 -3.312227 52.649495 -1.266928 4.344280 27.026749 3.104400 -0.000001 -83.303400
5.184660 16.504202 -7.411943 -178.067743 38.961860 -174.171412 -8.349544 2.068405 -0.772004 -23.384172 16.901592 -37.049782 -2.623413 1.468656 37.056113 2.718892 11.458320 -19.561174 177.307600 0.000000 -3.871100 12.811189 -3.129049 -1.689192 -6.824716 -19.368886 -9.414245 -0.922575 -3.484742 55.460661 -1.473553 1.888289 26.426278 1.812000 -0.000000 -79.641501
5.218374 16.439644 -7.509854 -178.427231 38.511640 -174.704807 -8.348369 2.074521 -0.904427 -23.544992 16.580474 -36.726767 -2.560570 1.593007 38.681843 2.805467 11.679404 -20.750958 176.966900 0.000000 -3.596600 12.889637 -2.902982 -1.919913 -7.444063 -19.646810 -10.289266 -1.078172 -3.672898 58.186710 -1.687616 -0.822475 25.372860 0.411800 0.000000 -75.908300
5.248683 16.376361 -7.605780 -178.795303 38.049410 -175.267882 -8.352928 2.074324 -1.044600 -23.701683 16.232214 -36.262934 -2.497855 1.703538 40.154933 2.910654 12.011427 -21.939506 176.593900 0.000000 -3.301300 12.959204 -2.671767 -2.159297 -8.062081 -19.861063 -11.112828 -1.238758 -3.873747 60.791725 -1.905031 -3.632137 23.894687 -0.963200 -0.000001 -72.129801
5.276226 16.315449 -7.699921 -179.171462 37.579533 -175.852410 -8.361207 2.071058 -1.192581 -23.866791 15.881726 -35.679917 -2.437729 1.801445 41.463075 3.026524 12.421874 -23.081503 176.201500 0.000000 -3.008800 13.022030 -2.441335 -2.394847 -8.670022 -19.987822 -11.896260 -1.402688 -4.083337 63.244701 -2.119229 -6.375746 22.050755 -2.186200 -0.000000 -68.326300
5.301609 16.257969 -7.792608 -179.551031 37.107699 -176.443059 -8.371716 2.067254 -1.347283 -24.046290 15.549030 -35.006463 -2.382357 1.888199 42.601736 3.144945 12.873033 -24.141137 175.805201 -0.000000 -2.740500 13.079298 -2.217447 -2.614151 -9.250570 -20.003749 -12.657172 -1.567303 -4.296272 65.518731 -2.321547 -8.902824 19.926617 -3.159200 0.000000 -64.524700
5.325485 16.204827 -7.884116 -179.930029 36.637110 -177.024837 -8.383266 2.064687 -1.506634 -24.243622 15.248665 -34.271728 -2.333412 1.964865 43.572398 3.258298 13.325958 -25.093495 175.422100 -0.000000 -2.512000 13.131683 -2.005516 -2.805882 -9.787292 -19.891256 -13.415360 -1.729046 -4.506789 67.594037 -2.502259 -11.093348 17.625242 -3.828000 -0.000001 -60.800900
5.348350 16.156834 -7.974740 179.698899 36.171587 -177.578585 -8.395790 2.064257 -1.667705 -24.455864 14.989777 -33.507258 -2.292296 2.032490 44.383277 3.360015 13.743164 -25.926204 175.068800 -0.000000 -2.329900 13.178444 -1.809974 -2.960692 -10.259236 -19.638095 -14.192117 -1.883868 -4.708621 69.456716 -2.651752 -12.866933 15.253707 -4.185101 -0.000000 -57.263900
5.370688 16.114686 -8.064860 179.342061 35.718254 -178.085191 -8.407769 2.068385 -1.829380 -24.679457 14.776463 -32.737542 -2.261172 2.092992 45.039960 3.445512 14.095433 -26.636169 174.759100 0.000000 -2.191300 13.219744 -1.629391 -3.074858 -10.652459 -19.240229 -15.004658 -2.028071 -4.895250 71.098511 -2.761285 -14.178290 12.906299 -4.259400 0.000001 -53.965700
5.392835 16.078786 -8.154771 179.010788 35.269873 -178.528229 -8.422312 2.073870 -1.985728 -24.902169 14.608296 -31.987165 -2.239211 2.144718 45.559654 3.511503 14.357758 -27.231946 174.502300 -0.000000 -2.086600 13.251906 -1.470952 -3.141666 -10.947206 -18.702697 -15.867939 -2.156590 -5.062693 72.513739 -2.825380 -15.023273 10.667245 -4.109000 -0.000000 -51.070101
5.415055 16.049400 -8.244748 178.711598 34.823142 -178.896320 -8.440187 2.080046 -2.133508 -25.115726 14.480935 -31.268673 -2.226597 2.187277 45.953217 3.556996 14.517444 -27.726833 174.302800 0.000000 -2.000300 13.273182 -1.334897 -3.160903 -11.138226 -18.039565 -16.787323 -2.265642 -5.207463 73.700430 -2.841205 -15.421000 8.593294 -3.800000 -0.000000 -48.654800
5.437536 16.026674 -8.335089 178.453074 34.373807 -179.178826 -8.463044 2.085732 -2.269280 -25.308264 14.387235 -30.590004 -2.223095 2.220084 46.230983 3.582540 14.570829 -28.137357 174.160200 -0.000000 -1.914500 13.281086 -1.220484 -3.134529 -11.220951 -17.269959 -17.763820 -2.351996 -5.326915 74.658134 -2.809657 -15.414171 6.717948 -3.396800 0.000000 -46.764000
5.460293 16.010586 -8.426004 178.240659 33.916243 -179.371970 -8.492262 2.089854 -2.390365 -25.470059 14.317780 -29.950276 -2.228196 2.242502 46.400290 3.590048 14.523097 -28.480391 174.070200 -0.000000 -1.811300 13.273525 -1.125340 -3.067237 -11.199522 -16.419041 -18.790872 -2.413197 -5.419829 75.387903 -2.735081 -15.062032 5.050404 -2.953400 -0.000000 -45.391600
5.483379 16.000987 -8.517635 178.076481 33.445144 -179.476724 -8.528756 2.091935 -2.495050 -25.593753 14.261521 -29.341792 -2.241380 2.254243 46.464834 3.582213 14.385857 -28.770132 174.026201 -0.000000 -1.674800 13.248903 -1.045145 -2.966121 -11.083236 -15.515378 -19.857315 -2.447680 -5.486036 75.892517 -2.624774 -14.435608 3.578565 -2.509600 -0.000000 -44.471400
5.506636 15.997680 -8.610126 177.960230 32.965581 -179.492484 -8.572325 2.094592 -2.586305 -25.674151 14.207943 -28.755462 -2.263873 2.258077 46.423043 3.562231 14.176381 -29.016390 174.021000 -0.000000 -1.493400 13.206405 -0.967546 -2.843794 -10.883724 -14.585073 -20.949738 -2.455438 -5.524527 76.177444 -2.488327 -13.613437 2.276085 -2.091600 -0.000000 -43.891700
5.529957 16.000517 -8.703543 177.890803 32.463662 -179.433103 -8.623881 2.095397 -2.660168 -25.707289 14.144028 -28.170831 -2.293183 2.251350 46.271761 3.532944 13.911905 -29.222690 174.047700 0.000000 -1.262200 13.145025 -0.893469 -2.705665 -10.613582 -13.659442 -22.049272 -2.435634 -5.538008 76.245562 -2.336326 -12.675846 1.109556 -1.714300 -0.000000 -43.523700
5.553141 16.009261 -8.797886 177.864196 31.934266 -179.310981 -8.683292 2.094380 -2.715999 -25.691910 14.057936 -27.569254 -2.328134 2.233819 46.005026 3.496973 13.610856 -29.387566 174.100399 0.000000 -0.983800 13.064584 -0.818616 -2.560074 -10.285614 -12.764036 -23.137576 -2.388807 -5.528184 76.101823 -2.179317 -11.698258 0.044728 -1.384900 -0.000001 -43.251100
5.575949 16.023736 -8.893167 177.875053 31.374091 -179.139696 -8.750097 2.091739 -2.753506 -25.629191 13.938409 -26.932859 -2.367525 2.205407 45.615832 3.456252 13.289310 -29.505408 174.174900 -0.000000 -0.669000 12.965276 -0.739311 -2.414584 -9.910969 -11.919427 -24.197206 -2.316120 -5.496740 75.751089 -2.026764 -10.745958 -0.946759 -1.104900 0.000000 -42.993899
5.598196 16.043815 -8.989327 177.917801 30.781673 -178.932249 -8.823682 2.087773 -2.772289 -25.521192 13.775383 -26.246642 -2.410019 2.166148 45.097709 3.412072 12.961011 -29.567232 174.268300 -0.000001 -0.335000 12.847588 -0.653118 -2.274976 -9.497493 -11.139434 -25.212514 -2.219207 -5.445009 75.196980 -1.886249 -9.869485 -1.883767 -0.872501 0.000000 -42.715500
5.619683 16.069372 -9.086304 177.987060 30.157297 -178.700348 -8.903356 2.082692 -2.772218 -25.371144 13.560498 -25.499993 -2.454241 2.116270 44.446287 3.365067 12.636245 -29.562885 174.378900 -0.000001 -0.001600 12.712259 -0.558729 -2.145403 -9.051237 -10.431246 -26.169806 -2.100259 -5.374084 74.442734 -1.763225 -9.103334 -2.774235 -0.683300 0.000000 -42.417400
5.640287 16.100260 -9.184012 178.077711 29.502948 -178.453225 -8.988470 2.076548 -2.753439 -25.183073 13.287435 -24.687339 -2.498767 2.056194 43.660619 3.315301 12.321795 -29.482399 -5.494000 0.000000 -0.312600 12.560146 -0.455862 -2.028222 -8.576591 -9.796006 -27.059051 -1.961869 -5.284842 73.490500 -1.660927 -8.465692 -3.615577 -0.532000 -0.000000 -42.127400
5.659866 16.136415 -9.282414 178.187725 28.822440 -178.197268 -9.079062 2.069093 -2.716267 -24.958508 12.953899 -23.807523 -2.542106 1.986402 42.742540 3.262285 12.021178 -29.316509 -5.350200 0.000000 -0.596901 12.391819 -0.345795 -1.923857 -8.073361 -9.228143 -27.871723 -1.807018 -5.177701 72.340799 -1.580982 -7.963288 -4.394939 -0.412900 0.000000 -41.887301
5.678407 16.177619 -9.381413 178.314824 28.120032 -177.936598 -9.175061 2.059967 -2.661567 -24.700330 12.560316 -22.864918 -2.582822 1.907676 41.699143 3.205381 11.735167 -29.059377 -5.189401 0.000000 -0.850000 12.208152 -0.230320 -1.831552 -7.542406 -8.719116 -28.602801 -1.639148 -5.053288 70.994847 -1.523593 -7.593415 -5.093930 -0.321200 0.000000 -41.739400
